#tb 0: 1/25
#media_type 0: video
#codec_id 0: rawvideo
#dimensions 0: 416x240
#sar 0: 0/1
0,          0,          0,        1,   299520, 0x004cc70a
0,          1,          1,        1,   299520, 0xad9e4152
0,          2,          2,        1,   299520, 0x144ee938
0,          3,          3,        1,   299520, 0x40461d78
0,          4,          4,        1,   299520, 0xa9c58546
0,          5,          5,        1,   299520, 0x71b09ed7
0,          6,          6,        1,   299520, 0xea18fc0f
0,          7,          7,        1,   299520, 0xa910275d
0,          8,          8,        1,   299520, 0x6db43be1
0,          9,          9,        1,   299520, 0x74ad8f3b
0,         10,         10,        1,   299520, 0x98f0c0f4
0,         11,         11,        1,   299520, 0x3761fb46
0,         12,         12,        1,   299520, 0x41b9584f
0,         13,         13,        1,   299520, 0xa192386c
0,         14,         14,        1,   299520, 0x43a1a805
0,         15,         15,        1,   299520, 0xaf4022fb
0,         16,         16,        1,   299520, 0x7f380cf9
0,         17,         17,        1,   299520, 0xd9a7739f
0,         18,         18,        1,   299520, 0x3c4e20b0
0,         19,         19,        1,   299520, 0x99644804
0,         20,         20,        1,   299520, 0xf69c5191
0,         21,         21,        1,   299520, 0x5dfbfd4b
0,         22,         22,        1,   299520, 0x9e46ca67
0,         23,         23,        1,   299520, 0x690d6fc3
0,         24,         24,        1,   299520, 0x7633533d
0,         25,         25,        1,   299520, 0x356cc0a9
0,         26,         26,        1,   299520, 0xbc5fa337
0,         27,         27,        1,   299520, 0x694611d4
0,         28,         28,        1,   299520, 0xf77fac52
0,         29,         29,        1,   299520, 0xecfce2b8
0,         30,         30,        1,   299520, 0x5dfbcf4a
0,         31,         31,        1,   299520, 0x770ab51a
0,         32,         32,        1,   299520, 0xf72afb4a
0,         33,         33,        1,   299520, 0x984f0bc6
0,         34,         34,        1,   299520, 0x2c50a37d
0,         35,         35,        1,   299520, 0x2f59316c
0,         36,         36,        1,   299520, 0x592f257b
0,         37,         37,        1,   299520, 0x00addca5
0,         38,         38,        1,   299520, 0x6023b671
0,         39,         39,        1,   299520, 0xb8a324a0
0,         40,         40,        1,   299520, 0x0365caad
0,         41,         41,        1,   299520, 0xb46b2335
0,         42,         42,        1,   299520, 0x4f53f715
0,         43,         43,        1,   299520, 0x3d6ff635
0,         44,         44,        1,   299520, 0xa70cea97
0,         45,         45,        1,   299520, 0x912f6ab3
0,         46,         46,        1,   299520, 0x09f51e13
0,         47,         47,        1,   299520, 0x5d8037a5
0,         48,         48,        1,   299520, 0x6bc4b584
0,         49,         49,        1,   299520, 0xa459cf83
0,         50,         50,        1,   299520, 0xbcbfa0f0
0,         51,         51,        1,   299520, 0x7f5e1900
0,         52,         52,        1,   299520, 0xc67a5216
0,         53,         53,        1,   299520, 0xdc05c169
0,         54,         54,        1,   299520, 0x88081e72
0,         55,         55,        1,   299520, 0x33cf87af
0,         56,         56,        1,   299520, 0xd87b2a07
0,         57,         57,        1,   299520, 0xb22408fd
0,         58,         58,        1,   299520, 0xfe5555db
0,         59,         59,        1,   299520, 0xc9dde0c5
0,         60,         60,        1,   299520, 0xbe201bd0
0,         61,         61,        1,   299520, 0x5690b9f3
0,         62,         62,        1,   299520, 0x0652ee4b
0,         63,         63,        1,   299520, 0x765c6b0c
